<svg width="14" height="14" viewBox="0 0 14 14" fill="none" xmlns="http://www.w3.org/2000/svg">
<path fill-rule="evenodd" clip-rule="evenodd" d="M13.4001 7.37685C13.4001 7.80966 13.356 8.24188 13.2695 8.6632C13.1851 9.0745 13.0601 9.47831 12.8963 9.86432C12.7363 10.2435 12.5379 10.6089 12.306 10.9497C12.0776 11.2883 11.8144 11.606 11.5253 11.8956C11.2356 12.1839 10.9169 12.4463 10.5784 12.6757C10.2365 12.906 9.87059 13.1042 9.49118 13.2649C9.10461 13.4278 8.69987 13.5526 8.28892 13.6369C7.86705 13.7236 7.43325 13.7679 6.99981 13.7679C6.56604 13.7679 6.13227 13.7236 5.711 13.6369C5.29942 13.5526 4.89471 13.4278 4.50844 13.2649C4.12905 13.1042 3.76277 12.906 3.42088 12.6757C3.08243 12.4464 2.76366 12.1839 2.47458 11.8956C2.1852 11.606 1.92205 11.2883 1.69329 10.9497C1.46265 10.6089 1.26388 10.2435 1.10326 9.86432C0.939478 9.47831 0.814177 9.07448 0.729482 8.6632C0.64386 8.24188 0.600098 7.80966 0.600098 7.37685C0.600098 6.9437 0.643835 6.51056 0.729507 6.09017C0.814202 5.67886 0.939503 5.27444 1.10328 4.88904C1.2639 4.50958 1.46268 4.14385 1.69332 3.80306C1.92207 3.46416 2.18523 3.14709 2.47461 2.85717C2.76369 2.56881 3.08245 2.30701 3.42091 2.07796C3.76279 1.8467 4.12908 1.64857 4.50846 1.48753C4.89474 1.32428 5.29942 1.19916 5.71102 1.11554C6.13229 1.02942 6.56606 0.985718 6.99983 0.985718C7.43328 0.985718 7.86705 1.02942 8.28895 1.11554C8.6999 1.19919 9.10461 1.32431 9.49121 1.48753C9.87059 1.64854 10.2366 1.8467 10.5784 2.07796C10.9169 2.30701 11.2357 2.56881 11.5254 2.85717C11.8144 3.14709 12.0776 3.46416 12.306 3.80306C12.5379 4.14385 12.7363 4.5096 12.8963 4.88904C13.0601 5.27444 13.1851 5.67886 13.2695 6.09017C13.356 6.51056 13.4001 6.9437 13.4001 7.37685ZM4.66779 2.44025C3.14363 3.15896 2.00607 4.56137 1.65136 6.25153C1.79545 6.25278 4.07307 6.28149 6.69726 5.58525C5.75128 3.90695 4.74061 2.53733 4.66779 2.44025ZM7.15009 6.42568C4.33589 7.26698 1.63543 7.20644 1.53856 7.20272C1.53698 7.26137 1.53417 7.31816 1.53417 7.37684C1.53417 8.77893 2.06389 10.0572 2.93456 11.0236C2.93268 11.0208 4.4284 8.37108 7.37792 7.41866C7.44916 7.39495 7.52168 7.37371 7.59355 7.35313C7.45638 7.04295 7.30665 6.73213 7.15009 6.42568ZM10.6094 3.28066C9.6471 2.43338 8.38362 1.91944 6.99979 1.91944C6.5557 1.91944 6.12474 1.97312 5.71191 2.07235C5.79377 2.18221 6.82041 3.54218 7.75513 5.25602C9.81744 4.48399 10.5959 3.30062 10.6094 3.28066ZM7.96612 8.25749C7.95394 8.26152 7.94177 8.26499 7.92987 8.26935C4.70507 9.39194 3.65196 11.6543 3.64057 11.679C4.56845 12.3995 5.73226 12.8342 6.99983 12.8342C7.75672 12.8342 8.47769 12.6804 9.13366 12.4017C9.05272 11.9249 8.73521 10.2535 7.96612 8.25749ZM10.054 11.903C11.2813 11.0761 12.1528 9.76291 12.396 8.24186C12.2835 8.20566 10.7543 7.72226 8.99018 8.0047C9.70709 9.97198 9.99838 11.5741 10.054 11.903ZM8.17582 6.06928C8.30268 6.32955 8.42552 6.59445 8.53895 6.86067C8.57928 6.95618 8.61866 7.0498 8.65709 7.14341C10.5347 6.90747 12.3845 7.30442 12.4635 7.32063C12.451 6.02683 11.9876 4.83941 11.2207 3.90978C11.2104 3.92442 10.3338 5.18923 8.17582 6.06928Z" fill="white"/>
</svg>
